<svg width="123" height="27" viewBox="0 0 123 27" fill="none" xmlns="http://www.w3.org/2000/svg">
<path d="M13.0641 3.03276C13.3717 2.12906 14.6498 2.12906 14.9574 3.03276L16.9256 8.81519C17.0636 9.22046 17.4442 9.49297 17.8723 9.49297H24.1391C25.119 9.49297 25.5142 10.7562 24.709 11.3147L19.7202 14.7746C19.3534 15.029 19.1996 15.4958 19.3435 15.9185L21.2677 21.5716C21.5785 22.4848 20.5438 23.2653 19.7511 22.7155L14.5806 19.1296C14.2379 18.8919 13.7836 18.8919 13.4408 19.1296L8.2703 22.7155C7.47764 23.2653 6.44291 22.4848 6.75375 21.5716L8.67795 15.9185C8.82182 15.4958 8.66806 15.029 8.30118 14.7746L3.31242 11.3147C2.50718 10.7562 2.90237 9.49297 3.88231 9.49297H10.1492C10.5773 9.49297 10.9579 9.22046 11.0958 8.81519L13.0641 3.03276Z" fill="#FFA858"/>
<path d="M36.6232 3.17878C36.9225 2.25746 38.2259 2.25746 38.5253 3.17878L40.3523 8.80203C40.4862 9.21405 40.8702 9.49302 41.3034 9.49302H47.2159C48.1846 9.49302 48.5874 10.7326 47.8037 11.3021L43.0203 14.7775C42.6699 15.0321 42.5232 15.4835 42.6571 15.8955L44.4842 21.5188C44.7835 22.4401 43.729 23.2063 42.9453 22.6368L38.162 19.1615C37.8115 18.9068 37.3369 18.9068 36.9864 19.1615L32.2032 22.6368C31.4195 23.2063 30.365 22.4401 30.6643 21.5188L32.4914 15.8955C32.6253 15.4835 32.4786 15.0321 32.1281 14.7775L27.3447 11.3021C26.561 10.7326 26.9638 9.49302 27.9325 9.49302H33.8451C34.2783 9.49302 34.6622 9.21405 34.7961 8.80202L36.6232 3.17878Z" fill="#FFA858"/>
<path d="M60.191 3.03276C60.4986 2.12906 61.7768 2.12906 62.0844 3.03276L64.0526 8.81519C64.1905 9.22046 64.5712 9.49297 64.9993 9.49297H71.2661C72.246 9.49297 72.6412 10.7562 71.836 11.3147L66.8472 14.7746C66.4803 15.029 66.3266 15.4958 66.4705 15.9185L68.3947 21.5716C68.7055 22.4848 67.6708 23.2653 66.8781 22.7155L61.7076 19.1296C61.3648 18.8919 60.9106 18.8919 60.5678 19.1296L55.3973 22.7155C54.6046 23.2653 53.5699 22.4848 53.8808 21.5716L55.805 15.9185C55.9488 15.4958 55.7951 15.029 55.4282 14.7746L50.4394 11.3147C49.6342 10.7562 50.0294 9.49297 51.0093 9.49297H57.2761C57.7042 9.49297 58.0849 9.22046 58.2228 8.81519L60.191 3.03276Z" fill="#FFA858"/>
<path d="M83.7501 3.17878C84.0495 2.25746 85.3529 2.25746 85.6522 3.17878L87.4793 8.80203C87.6132 9.21405 87.9971 9.49302 88.4303 9.49302H94.3429C95.3116 9.49302 95.7144 10.7326 94.9307 11.3021L90.1473 14.7775C89.7968 15.0321 89.6502 15.4835 89.784 15.8955L91.6111 21.5188C91.9104 22.4401 90.8559 23.2063 90.0722 22.6368L85.289 19.1615C84.9385 18.9068 84.4639 18.9068 84.1134 19.1615L79.3301 22.6368C78.5464 23.2063 77.4919 22.4401 77.7913 21.5188L79.6183 15.8955C79.7522 15.4835 79.6055 15.0321 79.2551 14.7775L74.4717 11.3021C73.688 10.7326 74.0908 9.49302 75.0595 9.49302H80.972C81.4052 9.49302 81.7892 9.21405 81.9231 8.80202L83.7501 3.17878Z" fill="#FFA858"/>
<path d="M107.318 3.03276C107.626 2.12906 108.904 2.12906 109.211 3.03276L111.18 8.81519C111.317 9.22046 111.698 9.49297 112.126 9.49297H118.393C119.373 9.49297 119.768 10.7562 118.963 11.3147L113.974 14.7746C113.607 15.029 113.454 15.4958 113.597 15.9185L115.522 21.5716C115.832 22.4848 114.798 23.2653 114.005 22.7155L108.835 19.1296C108.492 18.8919 108.038 18.8919 107.695 19.1296L102.524 22.7155C101.732 23.2653 100.697 22.4848 101.008 21.5716L102.932 15.9185C103.076 15.4958 102.922 15.029 102.555 14.7746L97.5664 11.3147C96.7611 10.7562 97.1563 9.49297 98.1363 9.49297H104.403C104.831 9.49297 105.212 9.22046 105.35 8.81519L107.318 3.03276Z" fill="#FFA858"/>
</svg>
